<?xml version="1.0" encoding="utf-8"?>
<!-- Generator: Adobe Illustrator 22.0.1, SVG Export Plug-In . SVG Version: 6.00 Build 0)  -->
<svg version="1.1" id="Layer_1" xmlns="http://www.w3.org/2000/svg" xmlns:xlink="http://www.w3.org/1999/xlink" x="0px" y="0px"
	 viewBox="0 0 512 512" style="enable-background:new 0 0 512 512;" xml:space="preserve">
<style type="text/css">
	.st0{fill:#020E88;}
</style>
<g id="XMLID_1156_">
	<g id="XMLID_416_">
		<path id="XMLID_419_" class="st0" d="M488,355.3V70.5c0-16.8-13.7-30.5-30.5-30.5H385V30c0-16.5-13.5-30-30-30s-30,13.5-30,30v10
			H163V30c0-16.5-13.5-30-30-30s-30,13.5-30,30v10H30.5C13.7,40,0,53.7,0,70.5v371C0,458.3,13.7,472,30.5,472h136.3
			c5.5,0,10-4.5,10-10s-4.5-10-10-10H30.5c-5.8,0-10.5-4.7-10.5-10.5v-371C20,64.7,24.7,60,30.5,60H103v10c0,16.5,13.5,30,30,30
			s30-13.5,30-30V60h162v10c0,16.5,13.5,30,30,30s30-13.5,30-30V60h72.5c5.8,0,10.5,4.7,10.5,10.5V120H90c-5.5,0-10,4.5-10,10
			c0,5.5,4.5,10,10,10h378v198.4c-8.5-5.4-17.9-9.4-28-11.8V178c0-5.5-4.5-10-10-10H58c-5.5,0-10,4.5-10,10v236c0,5.5,4.5,10,10,10
			h266.2c0.6,9.8,2.8,19.2,6.2,28h-83.6c-5.5,0-10,4.5-10,10s4.5,10,10,10h94.3c17,24.2,45.1,40,76.9,40c51.8,0,94-42.2,94-94
			C512,393.9,502.9,372,488,355.3z M143,70c0,5.5-4.5,10-10,10s-10-4.5-10-10V30c0-5.5,4.5-10,10-10c5.5,0,10,4.5,10,10V70z M365,70
			c0,5.5-4.5,10-10,10s-10-4.5-10-10V30c0-5.5,4.5-10,10-10s10,4.5,10,10V70z M418,324c-4.6,0-9.2,0.3-13.7,1h-38.7v-58H420v57
			C419.3,324,418.7,324,418,324z M325,404h-33.8v-59h54.4v13.1C334.9,371,327.6,386.7,325,404z M68,267h54.4v58H68V267z M142.4,267
			h54.4v58h-54.4V267z M291.2,267h54.4v58h-54.4V267z M271.2,325h-54.4v-58h54.4V325z M291.2,247v-59h54.4v59H291.2z M271.2,247
			h-54.4v-59h54.4V247z M196.8,247h-54.4v-59h54.4V247z M196.8,345v59h-54.4v-59H196.8z M216.8,345h54.4v59h-54.4L216.8,345
			L216.8,345z M420,247h-54.4v-59H420V247z M122.4,188v59H68v-59H122.4z M68,345h54.4v59H68V345z M418,492c-40.8,0-74-33.2-74-74
			s33.2-74,74-74s74,33.2,74,74S458.8,492,418,492z"/>
		<path id="XMLID_1115_" class="st0" d="M446.9,393.8L416,424.7l-13.8-13.8c-3.9-3.9-10.2-3.9-14.1,0c-3.9,3.9-3.9,10.2,0,14.1
			l20.8,20.8c1.9,1.9,4.4,2.9,7.1,2.9s5.2-1.1,7.1-2.9l38-38c3.9-3.9,3.9-10.2,0-14.1C457.2,389.9,450.8,389.9,446.9,393.8z"/>
		<path id="XMLID_1116_" class="st0" d="M206.8,452c-2.6,0-5.2,1.1-7.1,2.9c-1.9,1.9-2.9,4.4-2.9,7.1s1.1,5.2,2.9,7.1
			c1.9,1.9,4.4,2.9,7.1,2.9s5.2-1.1,7.1-2.9c1.9-1.9,2.9-4.4,2.9-7.1s-1.1-5.2-2.9-7.1C212,453.1,209.4,452,206.8,452z"/>
		<path id="XMLID_1120_" class="st0" d="M57.1,137.1c1.9-1.9,2.9-4.4,2.9-7.1c0-2.6-1.1-5.2-2.9-7.1c-1.9-1.9-4.4-2.9-7.1-2.9
			c-2.6,0-5.2,1.1-7.1,2.9S40,127.4,40,130c0,2.6,1.1,5.2,2.9,7.1s4.4,2.9,7.1,2.9C52.6,140,55.2,138.9,57.1,137.1z"/>
	</g>
</g>
</svg>
